<?xml version="1.0" encoding="utf-8"?>
<svg xmlns="http://www.w3.org/2000/svg" height="24" width="24" viewBox="0 0 24 24">
  <g>
    <path id="path1" transform="rotate(0,12,12) translate(0.1308753490448,0) scale(0.75,0.75)  " fill="#F9F9F9" d="M1.6459961,0L30.005003,0C30.913999,0,31.650999,0.81900024,31.650999,1.8289948L31.650999,30.170998C31.650999,31.181999,30.913999,32,30.005003,32L21.817991,32 21.817991,18.851997 25.751982,18.851997 25.751982,14.581001 21.817991,14.581001 21.817991,13.150002C21.817991,12.110001,22.645994,11.266998,23.670988,11.266998L25.751982,11.266998 25.751982,6.9980011 21.246977,6.9980011C18.509979,6.9980011,16.291992,9.2490005,16.291992,12.027L16.291992,14.581001 12.742003,14.581001 12.742003,18.851997 16.291992,18.851997 16.291992,32 1.6459961,32C0.73699956,32,7.5509888E-08,31.181999,0,30.170998L0,1.8289948C7.5509888E-08,0.81900024,0.73699956,0,1.6459961,0z" />
  </g>
</svg>

