<?xml version="1.0" encoding="utf-8"?>
<svg xmlns="http://www.w3.org/2000/svg" height="24" width="24" viewBox="0 0 24 24">
  <g>
    <path id="path1" transform="rotate(0,12,12) translate(1.6,1.60032482147217) scale(0.65,0.65)  " fill="#F9F9F9" d="M10.70697,21.429998C10.953003,21.429998 11.075989,21.429998 11.271973,21.453009 13.127014,22.753012 13.932007,23.401998 13.932007,24.632009 13.932007,26.125006 12.687988,27.238012 10.339966,27.238012 7.7260132,27.238012 6.0410156,26.007009 6.0410156,24.297003 6.0410156,22.586004 7.6010132,22.009008 8.1409912,21.815008 9.1679688,21.476004 10.487,21.429998 10.70697,21.429998z M22.130981,14.769001L22.130981,18.450001 18.461975,18.450001 18.461975,20.960012 22.130981,20.960012 22.130981,24.615011 24.620972,24.615011 24.620972,20.960012 28.307983,20.960012 28.307983,18.450001 24.620972,18.450001 24.620972,14.769001z M9.5100098,10.679996C11.537964,10.679996 12.588013,13.378009 12.588013,15.118 12.588013,15.547001 12.539001,16.315998 11.981018,16.871998 11.586975,17.257008 10.930969,17.550007 10.315002,17.550007 8.21698,17.550007 7.2559814,14.871998 7.2559814,13.257007 7.2559814,12.632007 7.3829956,11.979999 7.7969971,11.479999 8.190979,10.992007 8.875,10.679996 9.5100098,10.679996z M11.049011,9.8690061C9.7319946,9.8690061 8.065979,10.069003 6.6779785,11.205005 5.6229858,12.091006 5.1069946,13.325 5.1069946,14.435001 5.1069946,16.315006 6.5789795,18.222004 9.1679688,18.222004 9.4129639,18.222004 9.6809692,18.19701 9.9539795,18.174 9.8289795,18.466007 9.7059937,18.709003 9.7059937,19.11301 9.7059937,19.863012 10.096008,20.319006 10.440002,20.750006 9.3380127,20.825003 7.2849731,20.947012 5.7749634,21.860998 4.3289795,22.705999 3.8880005,23.937002 3.8880005,24.802008 3.8880005,26.586004 5.5969849,28.247002 9.1409912,28.247002 13.343994,28.247002 15.56897,25.957998 15.56897,23.692999 15.56897,22.034002 14.593994,21.211004 13.518982,20.319006L12.640991,19.643009C12.370972,19.429996 12,19.138004 12,18.608997 12,18.082005 12.370972,17.740009 12.687988,17.425007 13.714966,16.634006 14.742981,15.746998 14.742981,13.965 14.742981,12.132007 13.565002,11.205005 13.003967,10.668002L14.518005,10.668002 16.083984,9.8690061z M0,7.3840046L32,7.3840046 32,25.730001C32,29.17701,29.177979,31.999001,25.729004,31.999001L6.2719727,31.999001C2.822998,31.999001,0,29.17701,0,25.730001z M6.2719727,0L25.729004,0C29.086975,2.0349034E-08,31.828979,2.6799934,31.971985,6.0000014L0.028015137,6.0000014C0.17199707,2.6799934,2.9140015,2.0349034E-08,6.2719727,0z" />
  </g>
</svg>

