<?xml version="1.0" encoding="utf-8"?>
<svg xmlns="http://www.w3.org/2000/svg" height="24" width="24" viewBox="0 0 24 24">
  <g>
    <path id="path1" transform="rotate(0,12,12) translate(0,0.548997500359565) scale(0.750000134110475,0.750000134110475)  " fill="#F9F9F9" d="M16.353505,4.196167E-05C24.042396,-0.012957573 30.797299,3.0220385 31.812284,8.4920309 33.072267,15.302022 27.91134,22.678012 18.672472,22.148012 16.168509,22.003013 15.117523,21.082014 13.154552,20.196015 12.074567,24.400009 10.754585,28.431004 6.8486423,30.536001 5.6416588,24.18201 8.6186161,19.410016 10.001596,14.344023 7.643631,11.398027 10.284592,5.4700351 15.256521,6.9310331 21.374434,8.7270305 9.9595966,17.883018 17.622487,19.026017 25.623373,20.220015 28.889326,8.7200305 23.928397,4.9800358 16.7595,-0.42095661 3.0606956,4.8560357 4.7456722,12.588026 5.1556664,14.478023 7.7856274,15.052022 5.7966557,17.660018 1.2077217,16.90602 -0.1612587,14.219023 0.01473999,10.637028 0.29873466,4.7740359 7.1106377,0.67004108 13.94254,0.1030426 14.752528,0.035042763 15.558517,0.001042366 16.353505,4.196167E-05z" />
  </g>
</svg>

